<svg width="18" height="17" viewBox="0 0 18 17" fill="none" xmlns="http://www.w3.org/2000/svg">
<path d="M10.1317 0.00568104C10.7499 0.00330874 11.3681 0.00952209 11.9861 0.0243192L12.1505 0.0302494C12.3402 0.0370269 12.5274 0.0454987 12.7536 0.0556649C13.655 0.0980242 14.2701 0.240351 14.8097 0.449606C15.3689 0.664791 15.8399 0.956222 16.3109 1.42726C16.7416 1.85052 17.0749 2.3625 17.2877 2.92762C17.4969 3.46728 17.6393 4.08318 17.6816 4.98458C17.6918 5.20994 17.7003 5.39801 17.707 5.58778L17.7121 5.75213C17.7272 6.36989 17.7337 6.98783 17.7316 7.60577L17.7325 8.23777V9.34758C17.7346 9.96581 17.7281 10.584 17.713 11.2021L17.7079 11.3664C17.7011 11.5562 17.6926 11.7434 17.6825 11.9696C17.6401 12.871 17.4961 13.4861 17.2877 14.0257C17.0756 14.5915 16.7422 15.1039 16.3109 15.5269C15.8873 15.9576 15.375 16.2909 14.8097 16.5038C14.2701 16.713 13.655 16.8553 12.7536 16.8977C12.5274 16.9079 12.3402 16.9163 12.1505 16.9231L11.9861 16.9282C11.3681 16.9433 10.7499 16.9497 10.1317 16.9477L9.49966 16.9485H8.39072C7.77251 16.9506 7.1543 16.9441 6.53626 16.929L6.37191 16.924C6.1708 16.9167 5.96974 16.9082 5.76873 16.8985C4.86734 16.8562 4.25229 16.7122 3.7118 16.5038C3.14647 16.2914 2.6344 15.958 2.21146 15.5269C1.78029 15.1036 1.44666 14.5913 1.23383 14.0257C1.02458 13.4861 0.882252 12.871 0.839893 11.9696C0.830458 11.7686 0.821986 11.5675 0.814478 11.3664L0.810242 11.2021C0.794624 10.584 0.787563 9.96582 0.789063 9.34758V7.60577C0.786699 6.98784 0.792912 6.3699 0.807701 5.75213L0.813631 5.58778C0.820408 5.39801 0.82888 5.20994 0.839046 4.98458C0.881405 4.08233 1.02373 3.46812 1.23298 2.92762C1.44594 2.36223 1.78022 1.85038 2.21231 1.4281C2.63496 0.996677 3.1467 0.662734 3.7118 0.449606C4.25229 0.240351 4.86649 0.0980242 5.76873 0.0556649L6.37191 0.0302494L6.53626 0.0260136C7.15401 0.0104024 7.77193 0.00334176 8.38987 0.00483392L10.1317 0.00568104ZM9.26076 4.2416C8.69952 4.23367 8.14229 4.33736 7.62147 4.54665C7.10065 4.75594 6.62661 5.06666 6.22692 5.46075C5.82722 5.85484 5.50983 6.32444 5.2932 6.84226C5.07657 7.36008 4.96501 7.91579 4.96501 8.4771C4.96501 9.03841 5.07657 9.59413 5.2932 10.1119C5.50983 10.6298 5.82722 11.0994 6.22692 11.4935C6.62661 11.8875 7.10065 12.1983 7.62147 12.4076C8.14229 12.6169 8.69952 12.7205 9.26076 12.7126C10.3842 12.7126 11.4616 12.2663 12.256 11.4719C13.0503 10.6775 13.4966 9.60012 13.4966 8.47668C13.4966 7.35324 13.0503 6.27582 12.256 5.48143C11.4616 4.68704 10.3842 4.2416 9.26076 4.2416ZM9.26076 5.93597C9.59836 5.92975 9.93382 5.99087 10.2475 6.11575C10.5613 6.24063 10.8469 6.42678 11.0879 6.66332C11.3289 6.89986 11.5203 7.18204 11.651 7.49339C11.7817 7.80474 11.849 8.13901 11.8491 8.47667C11.8491 8.81434 11.7819 9.14863 11.6513 9.46002C11.5207 9.77141 11.3294 10.0537 11.0885 10.2903C10.8476 10.5269 10.562 10.7131 10.2483 10.8381C9.93465 10.9631 9.59921 11.0243 9.26161 11.0182C8.58756 11.0182 7.94112 10.7505 7.46449 10.2738C6.98786 9.7972 6.7201 9.15074 6.7201 8.47668C6.7201 7.80262 6.98786 7.15616 7.46449 6.67953C7.94112 6.2029 8.58756 5.93513 9.26161 5.93513L9.26076 5.93597ZM13.7084 2.97083C13.4351 2.98177 13.1766 3.09803 12.9871 3.29527C12.7976 3.49252 12.6918 3.75543 12.6918 4.02896C12.6918 4.30249 12.7976 4.5654 12.9871 4.76265C13.1766 4.95989 13.4351 5.07616 13.7084 5.08709C13.9893 5.08709 14.2586 4.97552 14.4572 4.77693C14.6558 4.57833 14.7674 4.30897 14.7674 4.02811C14.7674 3.74725 14.6558 3.4779 14.4572 3.2793C14.2586 3.0807 13.9893 2.96913 13.7084 2.96913V2.97083Z" fill="#129BB8"/>
</svg>
