<svg width="20" height="16" viewBox="0 0 20 16" fill="none" xmlns="http://www.w3.org/2000/svg">
<path d="M3.51124 0.204598C3.10027 0.203663 2.69317 0.283918 2.31331 0.440756C1.93345 0.597593 1.58831 0.827923 1.29772 1.11852C1.00712 1.40912 0.776792 1.75425 0.619955 2.13411C0.463117 2.51397 0.382862 2.92108 0.383797 3.33204V12.7132C0.38294 13.1241 0.463253 13.5311 0.620125 13.9109C0.776998 14.2907 1.00734 14.6358 1.29793 14.9263C1.58852 15.2169 1.93363 15.4471 2.31345 15.6039C2.69327 15.7607 3.10032 15.841 3.51124 15.84H16.0198C16.4307 15.841 16.8378 15.7607 17.2176 15.6039C17.5974 15.4471 17.9425 15.2169 18.2331 14.9263C18.5237 14.6358 18.7541 14.2907 18.9109 13.9109C19.0678 13.5311 19.1481 13.1241 19.1473 12.7132V3.33204C19.1482 2.92108 19.0679 2.51397 18.9111 2.13411C18.7543 1.75425 18.5239 1.40912 18.2333 1.11852C17.9427 0.827923 17.5976 0.597593 17.2177 0.440756C16.8379 0.283918 16.4308 0.203663 16.0198 0.204598H3.51124ZM8.05229 4.76102C8.84065 4.80475 10.0587 5.45482 10.5941 5.73613C11.253 6.08303 12.9598 6.96595 12.9639 7.66684C12.9692 8.36774 11.2749 9.27075 10.6213 9.62474C9.96705 9.97933 8.28691 10.9036 7.62738 10.5573C6.96844 10.2104 6.96963 8.40261 6.9649 7.7023C6.96017 7.00141 6.93417 5.19361 7.58838 4.83903C7.71071 4.77284 7.87027 4.75038 8.05229 4.76102Z" fill="#129BB8"/>
</svg>
